<?xml version="1.0" standalone="no"?>
<!DOCTYPE svg PUBLIC "-//W3C//DTD SVG 20010904//EN"
 "http://www.w3.org/TR/2001/REC-SVG-20010904/DTD/svg10.dtd">
<svg version="1.0" xmlns="http://www.w3.org/2000/svg"
 width="180.000000pt" height="180.000000pt" viewBox="0 0 180.000000 180.000000"
 preserveAspectRatio="xMidYMid meet">
<metadata>
Created by potrace 1.10, written by Peter Selinger 2001-2011
</metadata>
<g transform="translate(0.000000,180.000000) scale(0.100000,-0.100000)"
fill="#000000" stroke="none">
<path d="M745 1781 c-262 -33 -507 -205 -631 -443 -40 -77 -74 -195 -85 -296
-28 -252 67 -512 251 -686 165 -155 342 -226 566 -226 167 0 313 44 452 137
l54 35 -30 30 -29 30 -54 -36 c-163 -108 -375 -142 -573 -91 -144 36 -223 82
-336 195 -77 77 -103 111 -138 180 -105 209 -111 452 -17 657 147 321 485 491
830 418 111 -24 242 -95 334 -181 43 -40 82 -70 86 -66 5 4 5 2 1 -5 -3 -6 12
-37 34 -69 83 -118 128 -292 117 -453 -9 -142 -44 -248 -124 -374 l-25 -40 29
-29 30 -29 26 40 c16 24 24 47 21 58 -5 14 -4 15 4 4 8 -11 16 -3 35 35 67
134 92 259 85 428 -4 103 -10 135 -37 215 -18 52 -52 125 -74 164 -81 136
-228 268 -371 333 -116 52 -303 81 -431 65z m45 -30 c10 0 8 3 -5 9 -26 11
100 11 170 0 40 -6 44 -8 20 -10 -16 -2 4 -6 45 -10 78 -7 192 -51 187 -72 -1
-6 5 -13 13 -15 13 -4 13 -3 0 6 -17 12 -4 13 24 2 17 -7 17 -8 2 -23 -15 -15
-15 -17 4 -23 11 -4 17 -11 14 -17 -4 -6 -10 -5 -15 3 -5 8 -9 10 -9 5 0 -6
-9 0 -21 12 -11 12 -24 20 -30 17 -5 -4 -9 -2 -9 3 0 9 -54 36 -75 37 -24 2
-65 18 -61 24 2 3 -12 7 -32 9 -19 1 -42 8 -51 15 -8 6 -12 8 -9 2 4 -6 -34
-10 -105 -10 -118 -1 -159 -6 -243 -28 -40 -10 -55 -11 -68 -2 -19 14 -21 27
-3 24 6 -2 29 5 49 13 22 10 54 15 80 13 37 -4 39 -3 13 4 l-30 9 38 1 c21 0
36 5 32 10 -3 6 7 6 27 0 18 -5 40 -9 48 -8z m-254 -75 c10 -8 16 -18 12 -22
-5 -4 -16 0 -26 9 -27 24 -38 21 -16 -4 l19 -22 -25 13 c-22 12 -24 12 -12 -2
10 -13 10 -17 -3 -22 -9 -3 -13 -2 -10 4 3 6 -1 7 -9 4 -9 -3 -13 -11 -10 -16
4 -6 -4 -5 -16 2 -17 9 -25 9 -34 0 -8 -8 -7 -10 5 -5 10 4 20 2 23 -4 4 -5
-3 -12 -14 -16 -11 -4 -18 -11 -15 -16 4 -5 4 -9 1 -9 -2 0 -13 -3 -23 -6 -15
-5 -16 -4 -3 6 13 10 13 11 0 7 -8 -2 -15 -11 -15 -21 0 -18 -24 -38 -37 -30
-4 3 -8 -1 -8 -8 0 -10 -3 -9 -11 2 -9 12 -10 12 -5 -3 3 -10 0 -24 -7 -31 -6
-7 -25 -28 -41 -46 -25 -28 -30 -31 -38 -17 -6 11 -4 26 6 44 8 16 15 24 16
19 0 -5 13 10 30 32 16 23 42 49 57 59 16 10 31 22 34 27 4 5 12 5 18 2 6 -4
11 -4 10 1 -3 19 2 34 10 29 5 -3 21 6 35 19 15 14 31 23 36 20 5 -3 11 -1 15
5 9 14 28 13 51 -4z m759 -57 c0 -15 14 -29 30 -29 6 0 3 5 -5 10 -8 5 -10 10
-5 10 12 -1 55 -35 55 -45 0 -3 -6 -3 -12 2 -7 4 -20 8 -28 9 -8 1 -26 2 -39
3 -16 1 -21 5 -17 16 3 9 -1 18 -10 22 -13 5 -13 7 -2 14 17 11 33 6 33 -12z
m65 -59 c3 -1 9 -2 13 -1 5 1 17 -9 27 -21 13 -17 16 -28 9 -41 -6 -10 -14
-15 -20 -11 -6 4 -6 11 2 20 10 12 9 13 -6 7 -15 -5 -17 -3 -12 12 6 14 4 15
-5 7 -9 -7 -22 -4 -46 13 l-33 23 33 -3 c18 -2 35 -4 38 -5z m100 -86 c8 -16
19 -32 23 -35 5 -3 1 -13 -7 -22 -26 -25 -18 -33 8 -8 18 17 25 19 29 8 3 -8
1 -20 -4 -28 -5 -8 -9 -10 -9 -5 0 5 -6 3 -14 -3 -22 -18 -41 11 -25 41 9 19
9 21 -1 11 -18 -17 -54 29 -45 58 9 26 26 20 45 -17z m-1245 -60 c9 -15 12
-23 5 -19 -7 4 -11 1 -9 -6 3 -26 -1 -39 -12 -36 -6 1 -14 -4 -17 -12 -3 -9 0
-11 8 -6 9 6 11 4 5 -5 -6 -10 -11 -9 -22 5 -14 21 -18 8 -4 -14 7 -10 0 -28
-20 -58 -22 -31 -28 -49 -23 -66 6 -18 4 -20 -7 -10 -11 9 -14 5 -16 -20 -1
-18 -4 -48 -7 -67 -8 -50 -9 -247 -1 -260 4 -6 6 -25 5 -43 -3 -46 -1 -54 9
-38 7 10 12 0 17 -35 4 -27 7 -55 5 -63 -1 -7 2 -10 7 -7 12 7 25 -22 16 -35
-3 -5 2 -9 12 -9 11 0 15 -6 11 -20 -3 -10 1 -24 9 -31 8 -6 14 -8 14 -3 0 4
7 -1 15 -12 8 -10 15 -30 15 -43 0 -13 3 -22 6 -18 4 3 15 -4 24 -16 13 -16
15 -26 8 -35 -8 -10 -7 -11 7 -5 14 5 17 3 12 -9 -4 -12 -1 -14 15 -10 16 4
19 2 13 -8 -5 -9 -4 -11 4 -6 6 4 18 0 27 -8 12 -12 12 -16 2 -17 -7 0 -1 -5
15 -11 15 -5 27 -14 27 -19 0 -6 4 -8 9 -5 4 3 17 -1 27 -10 18 -14 17 -14 -6
-3 -22 11 -24 11 -12 -4 7 -9 27 -19 43 -22 17 -4 33 -13 36 -21 3 -8 9 -14
15 -14 5 0 6 4 3 10 -3 5 0 7 9 4 8 -3 12 -12 10 -19 -4 -10 1 -12 17 -8 15 4
20 3 15 -5 -5 -8 -2 -10 8 -6 9 3 16 2 16 -4 0 -6 -5 -12 -12 -14 -7 -3 -5 -7
6 -11 11 -4 15 -3 10 4 -7 13 100 2 129 -13 9 -5 17 -6 17 -2 0 4 9 -1 19 -10
10 -10 21 -13 22 -7 2 5 48 11 101 12 56 2 94 7 91 12 -3 5 4 6 16 2 20 -6
105 18 126 37 5 4 16 8 26 8 9 0 28 9 43 21 26 20 58 17 37 -4 -7 -7 -7 -14 0
-23 7 -8 2 -14 -18 -19 -15 -3 -31 -11 -34 -17 -4 -5 -13 -2 -24 8 -17 17 -17
17 -11 -3 6 -18 2 -22 -33 -28 -23 -4 -44 -7 -48 -7 -5 0 -15 -4 -24 -9 -9 -5
-40 -11 -69 -14 -28 -3 -56 -7 -61 -11 -5 -3 -9 1 -9 8 0 10 -2 10 -9 -1 -7
-11 -22 -12 -92 -1 -46 7 -100 12 -119 12 -29 -1 -32 0 -15 9 17 8 16 9 -7 6
-16 -3 -28 0 -28 4 0 5 -6 9 -12 9 -30 0 -88 22 -83 31 4 5 -3 10 -14 10 -12
1 -24 2 -28 3 -15 3 -73 37 -73 42 0 2 9 0 20 -6 15 -8 25 -8 38 0 14 9 13 10
-7 4 -17 -4 -21 -3 -16 6 5 8 4 11 -3 6 -15 -9 -52 7 -84 37 -15 14 -30 22
-34 18 -4 -3 -4 2 -1 11 4 13 2 15 -10 11 -13 -5 -15 -2 -9 12 4 11 4 16 0 13
-16 -17 -109 85 -100 109 3 6 -1 10 -7 7 -14 -5 -40 54 -30 69 4 6 0 8 -11 4
-10 -4 -15 -3 -11 3 3 6 1 10 -6 10 -6 0 -9 8 -6 20 3 11 1 18 -3 15 -5 -3
-14 3 -19 14 -16 29 -13 38 5 15 15 -18 15 -18 8 5 -4 17 -3 22 6 16 8 -5 11
-4 6 3 -4 6 -13 9 -21 6 -10 -4 -16 3 -20 23 -4 15 -11 41 -16 57 -5 15 -6 33
-2 39 3 6 1 7 -5 3 -12 -7 -14 21 -13 174 0 74 20 200 32 200 4 0 5 10 1 22
-3 13 -1 19 5 15 7 -5 9 1 5 15 -4 15 -2 19 7 13 10 -6 11 -1 7 16 -7 24 -7
24 10 4 16 -20 16 -20 9 3 -8 26 3 65 16 57 5 -3 7 0 4 7 -2 7 4 24 15 37 18
20 22 22 38 10 15 -13 16 -12 4 3 -8 10 -10 23 -6 30 5 8 1 8 -11 -2 -17 -14
-17 -14 -4 8 8 12 14 22 15 22 1 0 9 -12 19 -26z m1285 -77 c-8 -9 -9 -7 -4 7
5 13 4 17 -4 12 -8 -5 -10 -2 -5 10 6 15 7 15 16 -1 6 -11 5 -21 -3 -28z m45
11 c10 -18 18 -34 17 -36 -1 -1 4 -15 12 -31 8 -15 17 -41 20 -57 3 -16 10
-30 15 -32 6 -2 7 -10 4 -19 -5 -12 -3 -14 7 -8 8 5 11 4 7 -2 -3 -5 -2 -39 3
-74 14 -98 19 -208 9 -181 -13 34 -18 26 -8 -15 11 -49 11 -53 -1 -53 -5 0
-10 8 -11 18 0 12 -3 10 -10 -7 -5 -13 -7 -26 -4 -29 3 -3 5 0 5 6 0 6 6 9 13
6 11 -4 11 -15 3 -54 -5 -27 -13 -47 -17 -44 -4 2 -5 -5 -2 -16 3 -12 0 -20
-6 -20 -7 0 -9 -5 -5 -11 3 -6 2 -14 -3 -18 -5 -3 -14 -22 -19 -41 -5 -19 -16
-35 -24 -35 -7 0 -15 -7 -17 -15 -4 -13 -3 -13 6 0 6 8 11 10 11 5 0 -13 -20
-35 -32 -35 -4 0 -13 10 -19 23 -11 20 -11 21 5 8 14 -12 16 -12 11 1 -3 8 5
34 18 57 14 24 23 52 20 64 -4 18 -3 19 6 7 9 -12 11 -9 11 15 0 17 7 40 15
52 8 12 11 23 5 25 -6 2 -6 18 0 43 5 22 9 72 9 110 0 84 -33 299 -41 270 -6
-20 -6 -20 -7 1 0 11 -7 29 -15 39 -8 11 -12 25 -9 31 2 7 -1 15 -8 20 -8 5
-10 3 -4 -6 5 -9 4 -11 -3 -6 -9 5 -9 13 -2 26 5 10 7 26 4 34 -11 29 11 17
31 -16z m-30 -837 c-3 -11 -11 -21 -17 -21 -6 0 -6 6 2 15 10 13 10 19 -4 33
-24 27 -20 40 5 15 15 -14 19 -27 14 -42z m-19 18 c3 -6 2 -15 -4 -21 -6 -6
-8 -17 -5 -24 6 -17 -9 -18 -24 -3 -8 8 -8 18 -1 35 12 26 23 30 34 13z m-189
-211 c1 -11 -10 -26 -28 -37 -16 -10 -26 -21 -22 -25 4 -4 -1 -4 -11 0 -13 5
-17 4 -12 -4 5 -8 1 -10 -10 -5 -16 6 -16 7 0 19 12 8 14 14 6 19 -7 4 1 15
21 29 40 28 55 29 56 4z"/>
<path d="M329 1557 c6 -8 7 -18 3 -22 -4 -5 -1 -5 6 -1 10 6 10 11 1 22 -6 8
-14 14 -16 14 -3 0 0 -6 6 -13z"/>
<path d="M253 1464 c-4 -11 -8 -12 -13 -4 -5 8 -9 8 -13 -2 -8 -21 20 -18 40
4 10 11 12 18 4 18 -6 0 -14 -7 -18 -16z"/>
<path d="M1275 1620 c3 -5 8 -10 11 -10 2 0 4 5 4 10 0 6 -5 10 -11 10 -5 0
-7 -4 -4 -10z"/>
<path d="M1330 1556 c0 -2 8 -10 18 -17 15 -13 16 -12 3 4 -13 16 -21 21 -21
13z"/>
<path d="M1440 1470 c6 -11 12 -20 14 -20 2 0 2 9 -1 20 -3 11 -9 20 -15 20
-5 0 -4 -9 2 -20z"/>
<path d="M170 1359 c0 -5 5 -7 10 -4 6 3 10 8 10 11 0 2 -4 4 -10 4 -5 0 -10
-5 -10 -11z"/>
<path d="M130 1296 c0 -9 5 -16 10 -16 6 0 10 4 10 9 0 6 -4 13 -10 16 -5 3
-10 -1 -10 -9z"/>
<path d="M91 724 c0 -11 3 -14 6 -6 3 7 2 16 -1 19 -3 4 -6 -2 -5 -13z"/>
<path d="M210 481 c0 -6 4 -13 10 -16 6 -3 7 1 4 9 -7 18 -14 21 -14 7z"/>
<path d="M236 455 c-6 -17 5 -26 21 -17 8 5 7 11 -2 19 -10 10 -14 9 -19 -2z"/>
<path d="M454 252 c4 -3 14 -7 22 -8 9 -1 13 0 10 4 -4 3 -14 7 -22 8 -9 1
-13 0 -10 -4z"/>
<path d="M1155 240 c-13 -6 -15 -9 -5 -9 8 0 22 4 30 9 18 12 2 12 -25 0z"/>
<path d="M1601 1054 c0 -11 3 -14 6 -6 3 7 2 16 -1 19 -3 4 -6 -2 -5 -13z"/>
<path d="M1247 289 c7 -7 15 -10 18 -7 3 3 -2 9 -12 12 -14 6 -15 5 -6 -5z"/>
<path d="M685 1576 c-70 -53 -112 -93 -104 -100 2 -2 25 -6 50 -10 l45 -7 25
53 c13 29 34 67 46 85 12 18 19 33 15 32 -4 0 -38 -24 -77 -53z m-1 -54 c-22
-33 -30 -39 -44 -32 -10 5 -19 8 -21 7 -3 -1 5 5 16 13 11 8 27 23 36 32 10 9
20 14 23 11 3 -4 6 0 6 7 0 7 2 11 5 8 3 -3 -6 -24 -21 -46z"/>
<path d="M766 1540 l-47 -90 50 0 51 0 0 90 c0 50 -1 90 -3 90 -2 0 -25 -40
-51 -90z m25 -18 c-14 -26 -14 -35 -1 -27 6 3 10 1 10 -4 0 -6 -3 -11 -7 -12
-5 0 -16 -2 -25 -4 -16 -3 -15 1 5 35 22 39 38 49 18 12z"/>
<path d="M964 1546 l41 -84 50 5 c60 7 63 9 42 30 -14 14 -18 14 -32 3 -18
-15 -57 -22 -50 -9 8 12 -6 39 -17 33 -6 -4 -9 -1 -6 7 3 8 -2 19 -11 26 -9 7
-11 12 -6 13 6 0 27 -15 47 -34 33 -30 48 -35 48 -16 0 5 -106 86 -136 103 -7
4 7 -31 30 -77z"/>
<path d="M1030 1624 c0 -6 19 -26 43 -45 23 -18 53 -46 65 -61 19 -22 29 -27
50 -22 54 13 54 20 2 48 -27 15 -55 24 -60 21 -6 -4 -9 -1 -8 5 2 6 -15 19
-37 28 -22 8 -43 20 -47 26 -6 8 -8 8 -8 0z m165 -101 c20 -16 20 -16 0 -8
-11 4 -25 8 -32 8 -7 0 -10 4 -7 9 7 12 16 10 39 -9z"/>
<path d="M570 1582 c-86 -42 -125 -68 -113 -75 4 -2 21 -7 36 -11 24 -6 32 -2
50 21 12 15 21 32 19 38 -2 5 0 7 3 3 4 -4 27 7 51 24 72 51 58 51 -46 0z
m-37 -46 c-10 -13 -22 -22 -27 -19 -5 3 2 14 15 24 32 24 33 24 12 -5z"/>
<path d="M870 1537 l0 -87 45 0 c25 0 45 4 45 8 0 11 -69 143 -81 157 -5 5 -9
-27 -9 -78z m44 -31 c-3 -8 0 -17 7 -22 8 -5 10 -3 4 6 -6 9 -4 11 4 5 18 -10
-3 -29 -24 -21 -13 4 -14 10 -5 26 12 23 22 27 14 6z"/>
<path d="M180 1556 c0 -2 8 -10 18 -17 15 -13 16 -12 3 4 -13 16 -21 21 -21
13z"/>
<path d="M340 1412 c-33 -36 -60 -68 -60 -72 0 -8 92 -50 108 -50 5 0 17 19
28 42 10 22 31 58 46 79 l27 37 -45 15 -45 14 -59 -65z m90 23 c0 -7 -6 -16
-12 -19 -7 -3 -2 -3 12 0 25 7 25 6 6 -14 -10 -12 -23 -19 -27 -16 -5 3 -6 -2
-3 -10 5 -14 -22 -66 -35 -66 -3 0 -17 9 -31 20 l-25 19 24 25 c14 14 21 26
16 26 -5 0 4 13 19 29 28 29 56 32 56 6z"/>
<path d="M377 1420 c-9 -11 -13 -20 -9 -20 4 0 15 9 25 20 9 11 13 20 9 20 -4
0 -15 -9 -25 -20z"/>
<path d="M1242 1463 c-39 -14 -42 -17 -29 -32 8 -9 29 -43 47 -76 18 -33 35
-62 37 -64 5 -6 103 41 103 50 0 10 -72 99 -96 120 -17 15 -23 15 -62 2z m87
-60 c20 -21 37 -47 37 -57 1 -9 -1 -15 -4 -12 -3 4 -16 -1 -30 -10 -13 -8 -25
-14 -27 -12 -11 13 -44 89 -36 84 5 -4 12 -2 16 4 4 6 12 7 18 3 7 -4 5 2 -3
13 -22 29 -24 30 -17 12 9 -25 -6 -30 -32 -11 -18 12 -20 17 -10 24 24 15 50
3 88 -38z"/>
<path d="M91 1424 c0 -11 3 -14 6 -6 3 7 2 16 -1 19 -3 4 -6 -2 -5 -13z"/>
<path d="M525 1418 c-23 -29 -73 -115 -80 -135 -10 -35 10 -28 54 20 21 23 68
59 102 80 42 24 56 37 43 37 -12 0 -41 2 -65 5 -29 4 -47 1 -54 -7z m53 -11
c8 -10 5 -16 -11 -27 -12 -8 -25 -13 -29 -12 -4 1 -10 -7 -13 -18 -4 -12 -12
-17 -22 -13 -14 6 -14 8 4 23 11 9 25 26 32 38 13 25 24 28 39 9z m-78 -81 c0
-2 -8 -10 -17 -17 -16 -13 -17 -12 -4 4 13 16 21 21 21 13z"/>
<path d="M547 1396 c-4 -10 -1 -13 8 -9 8 3 12 9 9 14 -7 12 -11 11 -17 -5z"/>
<path d="M1065 1420 c-33 -5 -37 -8 -20 -15 36 -15 140 -92 160 -119 17 -23
45 -36 45 -21 0 11 -32 71 -63 117 -34 51 -39 53 -122 38z m105 -40 c22 -32
25 -40 10 -40 -5 0 -10 6 -10 13 0 8 -10 22 -22 33 -23 19 -23 19 -5 -2 26
-32 20 -38 -12 -12 -32 26 -32 33 -2 35 12 1 29 -10 41 -27z"/>
<path d="M720 1405 c-146 -41 -270 -165 -314 -315 -21 -69 -21 -199 -1 -266
65 -218 286 -361 505 -327 75 12 192 60 173 71 -7 5 -6 11 5 22 14 13 15 12 9
-3 -8 -21 1 -22 24 -1 10 9 15 23 12 32 -4 15 -3 15 6 2 10 -13 14 -11 30 10
15 18 17 27 8 33 -8 6 -6 7 5 3 21 -6 47 27 86 111 25 53 27 68 27 178 0 114
-1 123 -32 188 -22 45 -37 66 -44 61 -8 -4 -9 -3 -5 5 4 6 -3 25 -15 42 -30
42 -119 111 -135 105 -8 -3 -13 0 -11 6 1 6 -23 20 -53 31 -73 26 -206 32
-280 12z m260 -19 c0 -11 -19 -15 -25 -6 -3 5 1 10 9 10 9 0 16 -2 16 -4z
m-51 -17 c30 -7 47 -6 57 1 9 9 18 9 31 0 17 -11 17 -11 0 -6 -45 14 -32 -8
20 -35 68 -34 70 -34 52 -12 -12 14 -10 14 14 -1 15 -10 27 -15 27 -12 0 4 5
4 10 1 6 -4 7 -11 4 -17 -4 -6 -10 -6 -17 1 -6 6 -15 11 -20 11 -5 0 12 -23
37 -51 70 -78 107 -161 113 -258 16 -227 -128 -413 -350 -451 -175 -31 -360
69 -440 237 -30 64 -32 75 -32 178 0 105 1 113 35 180 19 39 34 76 33 82 0 7
3 11 7 8 3 -2 24 14 46 36 21 22 35 40 29 39 -19 -4 -26 0 -20 10 5 8 11 8 20
0 9 -7 25 -3 60 17 85 47 193 63 284 42z m-260 -13 c-2 -2 -15 -9 -29 -15 -24
-11 -24 -11 -6 3 16 13 49 24 35 12z m508 -93 c-4 -3 1 -16 10 -27 18 -21 18
-21 -4 -2 -20 16 -23 36 -6 36 4 0 3 -3 0 -7z m-699 -73 c-7 -10 -14 -18 -15
-16 -6 6 9 36 18 36 5 0 4 -9 -3 -20z m52 -545 c14 -19 14 -19 -2 -6 -10 7
-18 18 -18 24 0 6 1 8 3 6 1 -2 9 -13 17 -24z m40 -30 c11 -13 10 -14 -4 -9
-9 3 -16 10 -16 15 0 13 6 11 20 -6z m475 -55 c-3 -5 -14 -10 -23 -9 -14 0
-13 2 3 9 27 11 27 11 20 0z m-315 -30 c8 -5 11 -10 5 -10 -5 0 -17 5 -25 10
-8 5 -10 10 -5 10 6 0 17 -5 25 -10z m57 -16 c-3 -3 -12 -4 -19 -1 -8 3 -5 6
6 6 11 1 17 -2 13 -5z"/>
<path d="M782 1348 c-201 -31 -346 -222 -329 -430 3 -37 11 -76 17 -85 10 -16
11 -16 5 2 -26 82 -11 215 35 304 28 56 109 132 177 167 53 26 67 29 163 29
92 0 112 -3 160 -26 31 -14 74 -41 95 -60 34 -28 36 -29 15 -5 -71 80 -214
124 -338 104z"/>
<path d="M1030 1260 c-9 -6 -10 -10 -3 -10 6 0 15 5 18 10 8 12 4 12 -15 0z"/>
<path d="M1124 1180 c0 -13 4 -16 10 -10 7 7 7 13 0 20 -6 6 -10 3 -10 -10z"/>
<path d="M480 807 c0 -13 39 -81 61 -107 23 -28 19 -19 -28 59 -18 30 -33 52
-33 48z"/>
<path d="M250 1298 c0 -2 -14 -36 -30 -77 -17 -41 -37 -112 -44 -158 l-13 -83
77 0 c85 0 90 3 90 75 0 26 17 106 36 167 4 13 -10 25 -55 48 -34 17 -61 29
-61 28z m26 -47 c-3 -4 7 -7 23 -5 31 4 57 -18 46 -37 -6 -8 -10 -7 -17 2 -6
10 -7 7 -3 -9 4 -13 -1 -63 -11 -112 -17 -88 -18 -90 -45 -90 -16 0 -32 0 -36
-1 -5 0 -11 10 -15 23 -6 23 -6 23 -8 -2 -1 -14 -4 -19 -7 -11 -5 11 -7 11
-15 0 -7 -10 -8 -9 -4 6 3 11 11 42 17 69 10 40 14 46 20 30 5 -13 8 -15 8 -3
1 8 -4 20 -9 25 -12 12 33 124 50 124 6 0 9 -4 6 -9z"/>
<path d="M225 1159 c-4 -6 -5 -12 -2 -15 2 -3 7 2 10 11 7 17 1 20 -8 4z"/>
<path d="M216 1078 c3 -5 10 -6 15 -3 13 9 11 12 -6 12 -8 0 -12 -4 -9 -9z"/>
<path d="M1373 1266 c-48 -24 -60 -34 -54 -46 14 -25 41 -157 41 -199 l0 -41
80 0 c74 0 80 2 80 20 0 44 -32 173 -58 234 l-27 64 -62 -32z m31 -7 c-4 -8 1
-9 17 -4 13 4 21 4 17 0 -4 -4 2 -25 13 -47 11 -21 17 -44 13 -50 -4 -7 -3 -8
4 -4 8 4 12 0 12 -12 0 -10 3 -47 6 -81 6 -56 5 -61 -13 -61 -10 0 -24 5 -31
12 -9 9 -12 9 -12 0 0 -7 -7 -12 -15 -12 -18 0 -30 28 -39 86 -4 21 -14 60
-23 86 -14 40 -14 48 -2 60 8 8 20 13 28 10 8 -3 11 0 7 6 -3 6 0 13 6 15 19
8 20 8 12 -4z"/>
<path d="M1452 1120 c0 -14 2 -19 5 -12 2 6 2 18 0 25 -3 6 -5 1 -5 -13z"/>
<path d="M406 1196 c-3 -13 -8 -32 -12 -43 -3 -10 4 0 15 21 24 45 24 46 12
46 -5 0 -12 -11 -15 -24z"/>
<path d="M1260 1215 c1 -6 7 -21 16 -35 l15 -25 -7 25 c-7 26 -24 52 -24 35z"/>
<path d="M170 892 c0 -46 23 -135 52 -205 28 -68 34 -74 56 -54 10 9 35 23 56
32 29 12 36 20 31 33 -15 39 -35 128 -35 157 0 71 -5 75 -86 75 l-74 0 0 -38z
m60 13 c0 6 14 9 33 7 33 -4 34 -5 51 -85 9 -45 17 -92 16 -105 0 -15 4 -21
11 -16 7 4 10 2 8 -5 -3 -7 -9 -13 -14 -14 -6 -1 -18 -8 -27 -16 -30 -25 -56
-21 -68 12 -5 17 -10 41 -10 53 0 13 -5 24 -10 24 -6 0 -8 12 -4 28 4 21 3 24
-5 12 -10 -13 -11 -13 -12 0 -1 8 -2 29 -4 47 -1 18 -5 40 -9 48 -3 9 -2 13 3
10 5 -3 13 0 17 6 4 8 9 7 15 -2 5 -8 9 -9 9 -4z"/>
<path d="M206 845 c-9 -26 -7 -32 5 -12 6 10 9 21 6 23 -2 3 -7 -2 -11 -11z"/>
<path d="M1360 893 c0 -35 -21 -149 -35 -194 -5 -14 6 -24 53 -48 l60 -30 20
47 c29 67 49 141 57 206 l7 56 -81 0 -81 0 0 -37z m135 -26 c0 -19 -4 -33 -9
-29 -5 3 -6 -3 -3 -13 4 -9 3 -23 -3 -30 -6 -7 -12 -26 -13 -43 -1 -16 -5 -28
-8 -26 -9 5 -21 -25 -14 -36 2 -4 -5 -16 -16 -26 -17 -15 -22 -16 -29 -4 -5 7
-16 15 -26 16 -17 3 -34 21 -34 37 0 5 4 5 10 2 5 -3 10 4 10 17 -1 13 5 57
12 98 13 75 13 75 48 81 56 8 75 -3 75 -44z"/>
<path d="M1472 865 c0 -16 2 -22 5 -12 2 9 2 23 0 30 -3 6 -5 -1 -5 -18z"/>
<path d="M1451 850 c0 -8 4 -22 9 -30 12 -18 12 -2 0 25 -6 13 -9 15 -9 5z"/>
<path d="M390 768 c0 -17 23 -68 31 -68 5 0 2 15 -7 33 -18 34 -24 44 -24 35z"/>
<path d="M1276 738 c-18 -36 -19 -38 -8 -38 5 0 13 16 19 35 14 43 9 45 -11 3z"/>
<path d="M1180 615 c-51 -51 -53 -56 -38 -72 14 -13 20 -14 32 -3 11 8 16 9
16 1 0 -6 -6 -11 -12 -11 -7 -1 5 -16 26 -36 l40 -34 32 31 c18 18 30 38 27
46 -6 15 -18 9 -18 -10 -1 -7 -7 -11 -14 -9 -7 1 -10 -2 -7 -7 9 -14 -24 -22
-46 -10 -11 6 -17 13 -14 16 9 9 -14 44 -25 38 -5 -4 -9 -1 -9 5 0 6 -5 8 -12
4 -7 -4 -8 -3 -4 5 4 6 12 8 18 5 6 -4 8 -2 5 3 -7 11 9 30 28 33 6 1 9 6 8
11 -5 15 13 10 27 -6 7 -9 19 -14 25 -11 7 2 21 -14 32 -36 12 -23 24 -35 28
-29 6 11 -49 95 -78 119 -10 9 -26 -1 -67 -43z m73 15 c9 -11 13 -20 7 -20 -5
0 -14 9 -20 20 -6 11 -9 20 -8 20 2 0 11 -9 21 -20z"/>
<path d="M442 633 c7 -16 29 -56 51 -90 37 -60 38 -61 70 -52 17 5 45 9 61 9
27 0 25 3 -30 35 -32 19 -78 55 -101 80 -48 52 -69 59 -51 18z m101 -87 c10
-3 15 -10 12 -16 -3 -5 -1 -10 4 -10 6 0 11 -4 11 -10 0 -6 -10 -5 -25 2 -14
6 -25 17 -25 25 0 7 -3 13 -7 13 -5 0 -16 15 -26 33 l-17 32 27 -31 c16 -17
36 -34 46 -38z"/>
<path d="M338 614 c-25 -13 -49 -27 -52 -33 -6 -9 54 -90 90 -123 18 -15 24
-16 59 -3 41 14 45 27 20 55 -7 8 -26 40 -41 71 l-29 55 -47 -22z m60 -44 c10
-22 21 -38 25 -35 4 3 5 2 2 -2 -3 -3 -1 -11 4 -17 15 -20 22 -48 10 -40 -6 4
-15 0 -20 -7 -7 -11 -9 -11 -9 -1 0 7 -4 11 -9 8 -10 -6 -81 71 -81 86 0 5 -4
6 -10 3 -6 -3 -7 1 -4 9 3 9 9 14 13 12 3 -2 17 2 31 10 14 7 26 13 27 14 1 0
11 -18 21 -40z"/>
<path d="M385 509 c-4 -6 -5 -12 -2 -15 2 -3 7 2 10 11 7 17 1 20 -8 4z"/>
<path d="M1300 635 c0 -8 82 -85 91 -85 4 0 9 6 12 14 5 13 -15 28 -95 73 -5
2 -8 1 -8 -2z"/>
<path d="M1077 525 l-38 -22 43 -6 c24 -3 52 -9 61 -13 25 -9 22 18 -5 43
l-23 20 -38 -22z"/>
<path d="M86 517 c3 -10 9 -15 12 -12 3 3 0 11 -7 18 -10 9 -11 8 -5 -6z"/>
<path d="M1227 509 c7 -7 15 -10 18 -7 3 3 -2 9 -12 12 -14 6 -15 5 -6 -5z"/>
<path d="M1302 497 c-12 -13 -22 -33 -22 -45 0 -27 78 -115 93 -105 6 3 7 1 3
-5 -4 -7 14 -34 42 -64 79 -84 166 -180 202 -220 17 -21 41 -38 52 -38 26 0
98 71 98 97 0 11 -43 59 -107 118 -59 55 -151 142 -205 193 -53 50 -105 92
-116 92 -10 0 -28 -10 -40 -23z m58 -11 c0 4 10 -2 23 -14 13 -12 27 -19 32
-15 4 5 5 3 2 -4 -4 -6 10 -25 33 -43 22 -17 38 -36 35 -41 -4 -5 1 -6 9 -3 9
3 16 1 16 -5 0 -6 11 -21 25 -33 14 -12 23 -28 21 -35 -4 -11 -1 -11 15 -2 16
8 19 8 15 0 -4 -6 0 -14 9 -17 9 -4 14 -13 11 -21 -4 -8 -1 -11 5 -7 10 6 52
-30 44 -38 -2 -2 6 -10 18 -17 21 -13 21 -13 8 5 -14 18 -14 18 3 2 12 -10 15
-21 10 -29 -20 -34 -5 -95 22 -85 20 8 17 -1 -8 -26 -19 -19 -21 -20 -15 -2 7
19 7 19 -8 0 -12 -16 -17 -17 -30 -6 -9 7 -14 19 -11 26 3 8 0 11 -10 7 -17
-6 -18 8 -1 27 10 12 9 12 -6 1 -15 -12 -20 -11 -37 4 -22 20 -29 45 -7 27 9
-8 12 -3 12 23 0 18 -4 31 -8 28 -5 -3 -6 -11 -3 -18 2 -7 -2 -16 -11 -19 -22
-9 -26 -1 -13 26 10 21 10 21 -3 5 -17 -21 -31 -22 -23 -2 3 8 0 14 -6 12 -6
-1 -15 9 -19 23 -4 14 -7 19 -8 11 -2 -22 -16 -2 -16 22 0 11 -7 22 -15 24
-13 4 -13 3 0 -6 8 -5 12 -12 10 -15 -3 -2 -18 7 -35 21 -16 14 -23 22 -15 18
8 -4 3 4 -12 17 -15 14 -25 28 -21 32 3 3 14 -1 23 -9 14 -13 16 -12 16 4 0
14 -7 17 -27 15 -15 -2 -32 3 -39 11 -7 8 -17 12 -23 8 -6 -3 -7 -1 -3 6 4 7
-2 19 -15 30 -17 14 -19 20 -9 26 9 6 11 4 5 -5 -6 -9 -4 -11 5 -5 8 5 11 4 7
-2 -3 -5 0 -10 8 -10 13 0 12 3 -1 18 -13 15 -21 16 -38 7 -21 -11 -21 -11 -2
11 19 21 19 22 1 15 -17 -7 -18 -6 -5 8 8 9 18 14 23 11 4 -2 7 1 7 8 0 8 4 8
15 -1 8 -7 15 -9 15 -4z m364 -339 c-1 -8 4 -13 10 -11 6 2 12 -6 12 -20 1
-18 -3 -23 -22 -23 -27 0 -39 23 -23 43 9 11 9 14 0 14 -7 0 -9 5 -6 11 10 15
30 5 29 -14z"/>
<path d="M1363 455 c0 -8 4 -12 9 -9 5 3 6 10 3 15 -9 13 -12 11 -12 -6z"/>
<path d="M1445 381 c-3 -5 -2 -12 3 -15 5 -3 9 1 9 9 0 17 -3 19 -12 6z"/>
<path d="M1529 318 c0 -2 -2 -11 -4 -21 -3 -15 -1 -16 11 -6 7 6 11 15 8 20
-5 9 -13 12 -15 7z"/>
<path d="M1655 110 c-3 -5 -1 -10 4 -10 6 0 11 5 11 10 0 6 -2 10 -4 10 -3 0
-8 -4 -11 -10z"/>
<path d="M720 465 c0 -8 57 -119 80 -157 l20 -33 0 98 0 97 -50 0 c-27 0 -50
-2 -50 -5z m78 -63 c-1 -18 -5 -35 -10 -38 -4 -3 -5 3 -1 12 4 12 3 15 -5 10
-8 -5 -12 1 -12 18 0 14 -4 26 -10 26 -5 0 -10 5 -10 11 0 8 5 8 15 -1 12 -10
15 -9 15 6 0 16 2 17 10 4 5 -8 9 -30 8 -48z"/>
<path d="M870 378 c0 -104 0 -105 61 15 l39 77 -50 0 -50 0 0 -92z m64 63 c3
-5 -3 -19 -13 -32 -10 -13 -21 -33 -24 -44 -3 -12 -5 -5 -6 17 0 20 2 43 5 52
7 17 29 21 38 7z"/>
<path d="M612 451 c-18 -3 -33 -10 -34 -16 -2 -11 114 -111 160 -138 l31 -17
-34 56 c-19 31 -39 72 -45 90 -12 35 -17 37 -78 25z m58 -38 c0 -15 4 -22 11
-17 7 4 10 1 7 -7 -3 -8 2 -19 11 -26 10 -8 11 -12 4 -13 -6 0 -19 10 -27 22
-9 12 -16 18 -16 13 0 -4 -11 2 -25 15 -23 22 -24 25 -8 31 31 11 43 6 43 -18z"/>
<path d="M645 410 c3 -5 8 -10 11 -10 2 0 4 5 4 10 0 6 -5 10 -11 10 -5 0 -7
-4 -4 -10z"/>
<path d="M968 370 l-46 -90 52 38 c86 61 150 121 135 126 -8 2 -32 7 -54 10
l-40 5 -47 -89z m102 53 c0 -6 -5 -15 -12 -19 -7 -5 -9 -2 -4 7 4 8 -2 3 -13
-11 -11 -14 -21 -28 -21 -32 0 -4 -7 -4 -17 -1 -10 4 -14 2 -9 -5 3 -6 2 -13
-3 -17 -11 -6 -7 27 5 46 4 8 9 7 15 -2 6 -10 9 -4 9 17 0 28 3 32 25 30 14 0
25 -6 25 -13z"/>
<path d="M470 418 c-34 -9 -34 -10 -15 -25 22 -17 198 -103 210 -103 4 0 -15
17 -43 38 -27 20 -62 52 -77 70 -15 17 -30 32 -33 31 -4 0 -23 -5 -42 -11z
m50 -24 c0 5 7 3 15 -4 24 -20 6 -32 -20 -13 -12 10 -21 22 -18 27 3 4 9 2 14
-5 5 -8 9 -10 9 -5z"/>
<path d="M1115 372 c-33 -31 -69 -63 -80 -69 -28 -17 77 23 123 47 20 10 50
28 65 38 l29 19 -25 7 c-14 3 -31 8 -39 11 -7 3 -40 -21 -73 -53z m83 21 c-6
-7 -13 -11 -16 -8 -3 3 -16 -5 -29 -17 -13 -12 -23 -18 -23 -14 0 11 52 53 66
53 10 0 11 -4 2 -14z"/>
</g>
</svg>
